<?xml version="1.0" encoding="UTF-8" standalone="yes"?>
<!-- Created with sK1/UniConvertor (http://sk1project.org/) -->
<svg xmlns="http://www.w3.org/2000/svg" xmlns:xlink="http://www.w3.org/1999/xlink"
  width="595.276pt" height="841.89pt" viewBox="0 0 595.276 841.89"
  fill-rule="evenodd">
<g>
<path style="stroke:none; fill:none" d="M 68 510.332C 66.4848 648.895 225.344 805.513 351 784.832C 415.587 774.202 487.489 714.211 480.5 655.332C 476.638 622.8 447.706 582.27 407 581.832C 366.35 581.394 333.681 621.153 332 655.332C 329.987 696.276 371.961 739.558 417 750.832C 561.457 786.991 683.779 479.493 852.5 500.332C 1004.99 519.167 1030.07 775.178 1186.5 794.832C 1315.13 810.994 1468.51 659.359 1447.5 574.832C 1428.27 497.471 1289.53 513.707 1258 421.332C 1232.42 346.384 1267.62 235.899 1352.5 232.332C 1405.27 230.114 1434.91 275.545 1434.5 318.832C 1434.05 366.544 1391.29 398.981 1321 409.832C 1093.85 444.897 916.337 23.8795 682 63.3321C 524.737 89.8087 479.53 332.169 340.5 325.332C 254.74 321.115 157.843 224.939 171.5 167.89C 176.093 148.702 190.151 117.39 221.5 117.39C 255.123 117.39 271.382 149.646 277.5 167.89C 309.448 263.156 69.6403 360.323 68 510.332z"/>
</g>
</svg>